# xmcd
#
# Track frame offsets:
#	150
#	27947
#	55910
#	81015
#	103780
#	124547
#	143120
#	159600
#	182840
#	203767
#
# Disc length: 3115 seconds
#
# Revision: 1
# Processed by: cddbd v1.5.1PL0 Copyright (c) Steve Scherf et al.
# Submitted via: audiograbber 1.82.02
#
DISCID=820c290a
DTITLE=Wild Roses - Beth and Cinde - Northern Lights
DYEAR=1996
DGENRE=Country
TTITLE0=Back To Sea
TTITLE1=Rosalie
TTITLE2=Heron Watch
TTITLE3=Full Moon Over Montana
TTITLE4=Idaho
TTITLE5=Two Big Brothers
TTITLE6=Calling Wild Horses
TTITLE7=The Magic Of You
TTITLE8=Northern Lights
TTITLE9=Beautiful Dreamer 
EXTD=
EXTT0=
EXTT1=
EXTT2=
EXTT3=
EXTT4=
EXTT5=
EXTT6=
EXTT7=
EXTT8=
EXTT9=
PLAYORDER=
